<svg width="18" height="18" viewBox="0 0 18 18" fill="none" xmlns="http://www.w3.org/2000/svg">
<path fill-rule="evenodd" clip-rule="evenodd" d="M5.5703 12.875C5.4123 12.7168 5.07026 12.8338 5.07026 12.6102C5.07026 12.3866 4.91231 12.2684 5.07031 12.1102L11.0703 6.11018L6.28604 6.44037C6.06227 6.44037 5.72854 6.26841 5.5703 6.11018C5.41207 5.95194 5.44229 6.06753 5.44229 5.84375C5.44229 5.61997 5.53119 5.40536 5.68942 5.24713C5.84766 5.08889 6.06227 5 6.28604 5H12.4735C12.6973 5 12.9119 5.08889 13.0702 5.24713C13.2284 5.40536 13.3173 5.61997 13.3173 5.84375V12.0313C13.3173 12.255 13.2284 12.4696 13.0702 12.6279C12.9119 12.7861 12.6973 12.875 12.4735 12.875C12.2498 12.875 12.0352 12.7861 11.8769 12.6279C11.7187 12.4696 11.6298 12.255 11.6298 12.0313L12.0703 7.11018L6.07048 13.1102C5.91227 13.2682 5.79407 13.1102 5.57048 13.1102C5.34688 13.1102 5.72851 13.033 5.5703 12.875Z" fill="#8D58FF"/>
</svg>
