<svg width="16" height="16" viewBox="0 0 16 16" fill="none" xmlns="http://www.w3.org/2000/svg">
<path d="M12.4743 7.17648C12.4263 7.06788 12.3189 6.99829 12.2001 6.99829H9.50008V2.49829C9.50008 2.37409 9.42389 2.26249 9.30749 2.21809C9.19049 2.17309 9.06028 2.20548 8.97688 2.29728L3.57688 8.29728C3.49768 8.38548 3.4773 8.51149 3.5259 8.62009C3.5739 8.72869 3.68128 8.79829 3.80008 8.79829H6.50008V13.2983C6.50008 13.4225 6.57627 13.5341 6.69267 13.5785C6.72807 13.5917 6.76408 13.5983 6.80008 13.5983C6.88348 13.5983 6.96509 13.5635 7.02329 13.4987L12.4233 7.49869C12.5025 7.41109 12.5223 7.28448 12.4743 7.17648Z" fill="#FFA800"/>
</svg>
