<svg width="17" height="17" viewBox="0 0 17 17" fill="none" xmlns="http://www.w3.org/2000/svg">
<path d="M15.9375 13.4584H1.0625C0.476708 13.4584 0 12.9816 0 12.3959V4.60419C0 4.0184 0.476708 3.54169 1.0625 3.54169H15.9375C16.5233 3.54169 17 4.0184 17 4.60419V12.3959C17 12.9816 16.5233 13.4584 15.9375 13.4584Z" fill="#FCC34A"/>
<path d="M4.34955 11.7131H3.18717C2.99167 11.7131 2.83301 11.5544 2.83301 11.3589V6.3751C2.83301 6.1796 2.99167 6.02094 3.18717 6.02094H4.34955C5.27109 6.02094 6.02051 6.77035 6.02051 7.69189V10.0414C6.02051 10.963 5.27109 11.7131 4.34955 11.7131ZM3.54134 11.0048H4.34955C4.8808 11.0048 5.31217 10.5727 5.31217 10.0421V7.6926C5.31217 7.16135 4.8808 6.72998 4.34955 6.72998H3.54134V11.0048ZM9.56217 11.6876H7.08301C6.88751 11.6876 6.72884 11.5289 6.72884 11.3334V6.3751C6.72884 6.1796 6.88751 6.02094 7.08301 6.02094H9.56217C9.75767 6.02094 9.91634 6.1796 9.91634 6.3751C9.91634 6.5706 9.75767 6.72927 9.56217 6.72927H7.43717V10.9793H9.56217C9.75767 10.9793 9.91634 11.1379 9.91634 11.3334C9.91634 11.5289 9.75767 11.6876 9.56217 11.6876Z" fill="#110638"/>
<path d="M8.854 9.2083H7.08317C6.88767 9.2083 6.729 9.04963 6.729 8.85413C6.729 8.65863 6.88767 8.49997 7.08317 8.49997H8.854C9.0495 8.49997 9.20817 8.65863 9.20817 8.85413C9.20817 9.04963 9.0495 9.2083 8.854 9.2083ZM12.3957 11.713C12.237 11.713 12.0982 11.6081 12.055 11.4558L10.6383 6.47201C10.5845 6.28359 10.6943 6.08809 10.882 6.03426C11.0711 5.98043 11.2659 6.09022 11.3197 6.27793L12.3957 10.0633L13.4716 6.27793C13.5248 6.08951 13.7203 5.97972 13.9094 6.03426C14.0978 6.08809 14.2069 6.28359 14.153 6.47201L12.7364 11.4558C12.6932 11.6074 12.5543 11.713 12.3957 11.713Z" fill="#110638"/>
</svg>
