<svg width="16" height="17" viewBox="0 0 16 17" fill="none" xmlns="http://www.w3.org/2000/svg">
<g clip-path="url(#clip0_239_561)">
<path d="M7.999 0.5C3.58201 0.5 4.61648e-06 4.096 4.61648e-06 8.532C-0.0018 10.2155 0.525519 11.8571 1.50744 13.2246C2.48935 14.5922 3.87621 15.6166 5.472 16.153C5.872 16.227 6.018 15.979 6.018 15.766C6.018 15.575 6.011 15.07 6.007 14.4C3.782 14.885 3.312 13.323 3.312 13.323C2.949 12.395 2.424 12.148 2.424 12.148C1.697 11.65 2.478 11.66 2.478 11.66C3.281 11.717 3.703 12.488 3.703 12.488C4.417 13.715 5.576 13.361 6.032 13.155C6.104 12.636 6.311 12.282 6.54 12.081C4.764 11.878 2.896 11.189 2.896 8.112C2.896 7.235 3.208 6.518 3.72 5.956C3.637 5.753 3.363 4.936 3.798 3.831C3.798 3.831 4.47 3.615 5.998 4.654C6.65075 4.47561 7.32432 4.38482 8.00101 4.384C8.67772 4.38534 9.35126 4.47647 10.004 4.655C11.531 3.616 12.202 3.832 12.202 3.832C12.638 4.938 12.364 5.754 12.282 5.957C12.795 6.519 13.104 7.236 13.104 8.113C13.104 11.198 11.234 11.877 9.452 12.076C9.739 12.324 9.995 12.814 9.995 13.563C9.995 14.637 9.985 15.503 9.985 15.766C9.985 15.981 10.129 16.231 10.535 16.152C12.1292 15.6143 13.5144 14.5895 14.4949 13.2223C15.4755 11.8551 16.0019 10.2145 16 8.532C16 4.096 12.418 0.5 7.999 0.5Z" fill="white"/>
</g>
<defs>
<clipPath id="clip0_239_561">
<rect width="16" height="16" fill="white" transform="translate(0 0.5)"/>
</clipPath>
</defs>
</svg>
