<svg width="20" height="20" viewBox="0 0 20 20" fill="none" xmlns="http://www.w3.org/2000/svg">
<path d="M3.42971 15.7093H5.85738V9.82358L2.38525 7.24066V14.6789C2.38525 15.2435 2.85103 15.7093 3.42971 15.7093Z" fill="#4285F4"/>
<path d="M14.1567 15.7093H16.5844C17.1631 15.7093 17.6289 15.2435 17.6289 14.6648V7.24066L14.1709 9.8377V15.7093H14.1567Z" fill="#34A853"/>
<path d="M14.1567 5.33522V9.83769L17.6147 7.24065V5.85745C17.6147 4.57305 16.1469 3.8391 15.1165 4.61539L14.1567 5.33522Z" fill="#FBBC04"/>
<path fill-rule="evenodd" clip-rule="evenodd" d="M5.84326 9.82356V5.33521L9.99287 8.45447L14.1425 5.33521V9.83767L10.007 12.9428L5.84326 9.82356Z" fill="#EA4335"/>
<path d="M2.38525 5.84334V7.22654L5.84326 9.82358V5.33522L4.86938 4.60128C3.85314 3.8391 2.38525 4.57305 2.38525 5.84334Z" fill="#C5221F"/>
</svg>
