<svg width="24" height="24" viewBox="0 0 24 24" fill="none" xmlns="http://www.w3.org/2000/svg">
<rect x="3" y="3" width="18" height="18" rx="9" fill="white"/>
<path d="M11.999 0C10.626 0 2.195 4.818 1.513 6C0.831001 7.182 0.827001 16.819 1.513 18C2.199 19.181 10.628 24 11.999 24C13.37 24 21.799 19.176 22.486 18C23.172 16.824 23.172 7.17 22.486 6C21.799 4.83 13.371 0 11.999 0ZM14.84 19.415V19.417C14.652 19.417 12.901 17.74 13.04 17.603C13.081 17.562 13.336 17.534 13.872 17.517C13.872 16.287 13.9 14.302 13.917 13.471C13.919 13.376 13.896 13.31 13.896 13.197H10.109C10.109 13.53 10.087 14.894 10.174 16.613C10.185 16.826 10.099 16.892 9.902 16.891C9.422 16.89 8.942 16.886 8.462 16.887C8.268 16.887 8.184 16.815 8.19 16.601C8.233 15.034 8.33 12.663 8.183 6.632V6.483C7.723 6.467 7.405 6.438 7.363 6.397C7.225 6.26 9 4.583 9.187 4.583C9.374 4.583 11.138 6.26 11 6.397C10.959 6.438 10.626 6.467 10.205 6.483V6.631C10.091 7.838 10.109 10.362 10.081 11.571H13.884C13.884 11.358 13.902 9.943 13.827 7.65C13.822 7.491 13.873 7.408 14.026 7.406C14.551 7.402 15.075 7.4 15.601 7.403C15.765 7.404 15.817 7.484 15.814 7.655C15.641 16.622 15.783 15.996 15.783 17.515C16.203 17.531 16.58 17.56 16.621 17.601C16.757 17.737 15.028 19.415 14.84 19.415Z" fill="#2FC363"/>
</svg>
