<svg width="24" height="24" viewBox="0 0 24 24" fill="none" xmlns="http://www.w3.org/2000/svg">
<g clip-path="url(#clip0_341_451)">
<path d="M22 14.355C22 13.613 21.436 13.009 20.74 13.009H10.676C9.98001 13.009 9.41602 13.613 9.41602 14.355C9.41602 15.097 9.97901 15.701 10.676 15.701H20.74C21.436 15.702 22 15.098 22 14.355Z" fill="#B3B1B0"/>
<path d="M3.482 18.187L7.795 22.548C8.768 23.527 10.113 24 11.598 24C13.083 24 14.428 23.488 15.403 22.506L17.991 19.869C18.501 19.355 18.483 18.504 17.952 17.969C17.421 17.434 16.577 17.416 16.068 17.93L13.392 20.537C12.93 21.004 12.29 21.199 11.583 21.199C10.876 21.199 10.237 21.004 9.773 20.537L5.475 16.174C5.012 15.707 4.779 15.024 4.779 14.311C4.779 13.598 5.012 12.954 5.475 12.487L9.76 8.107C10.223 7.64 10.876 7.462 11.582 7.462C12.288 7.462 12.928 7.657 13.391 8.124L16.067 10.73C16.577 11.245 17.421 11.227 17.952 10.692C18.483 10.156 18.501 9.305 17.991 8.791L15.403 6.155C14.7451 5.49757 13.9166 5.03694 13.011 4.825L12.977 4.818L15.424 2.315C15.936 1.801 15.918 0.949 15.387 0.414C14.856 -0.121 14.011 -0.138 13.5 0.376L3.482 10.476C2.509 11.458 2 12.813 2 14.311C2 15.809 2.509 17.207 3.482 18.187Z" fill="#E7A41F"/>
<path d="M8.11509 22.814C7.9408 22.7167 7.78121 22.5952 7.64109 22.453C6.31409 21.12 4.98109 19.793 3.65709 18.456C1.66809 16.448 1.35509 13.519 2.87109 11.136C3.11332 10.7717 3.39466 10.4351 3.71009 10.132L13.3331 0.489C13.9581 -0.137 14.8311 -0.163 15.4121 0.422C15.9721 0.985 15.9391 1.877 15.3341 2.488C14.5651 3.264 13.7951 4.038 13.0251 4.813C12.9841 4.935 12.8851 5.013 12.8001 5.1C11.9371 5.976 11.0501 6.829 10.1991 7.718C10.0881 7.834 9.93709 7.904 9.82709 8.023C8.40409 9.446 7.403 11.058 6 12.5C4.865 13.667 4.835 15.311 6 16.5C7.308 17.836 8.26809 19.072 9.59009 20.396C9.65709 20.463 9.72609 20.528 9.79409 20.594C10.2621 20.897 10.2681 21.844 9.97709 22.265C9.65609 22.73 9.23709 23.015 8.64409 22.993C8.44509 22.987 8.28109 22.907 8.11509 22.814Z" fill="#070706"/>
</g>
<defs>
<clipPath id="clip0_341_451">
<rect width="24" height="24" fill="white"/>
</clipPath>
</defs>
</svg>
