<svg width="24" height="24" viewBox="0 0 24 24" fill="none" xmlns="http://www.w3.org/2000/svg">
<rect width="24" height="24" rx="4" fill="black"/>
<path d="M7.81618 20.0006H4.23676V9.26229H7.81618V20.0006ZM8.17507 5.08786C8.17507 3.95454 7.27786 3.03842 6.14453 3.00065C4.99231 2.97231 4.02898 3.87897 4.00065 5.03119C3.97231 6.1834 4.87897 7.14673 6.03119 7.17507C7.20229 7.18451 8.15618 6.25897 8.17507 5.08786ZM20.9533 13.5123C20.9533 10.1689 18.7906 9.14894 16.9489 9.14894C15.655 9.11117 14.4367 9.74394 13.7284 10.8206V9.27172H10.2717V20.01H13.8511V14.4378C13.8511 14.3811 13.8511 14.3245 13.8511 14.2678C13.8511 14.2678 13.8511 14.2678 13.8511 14.2584C13.7756 13.1156 14.6445 12.1239 15.7873 12.0484C16.7222 12.0484 17.4306 12.6528 17.4306 14.3528V20.01H21.01L20.9628 13.5217L20.9533 13.5123Z" fill="white"/>
</svg>
