<svg width="100" height="100" viewBox="0 0 100 100" fill="none" xmlns="http://www.w3.org/2000/svg">
<g clip-path="url(#clip0_1043_2)">
<path d="M90.5473 0H9.45274C4.23213 0 0 4.23213 0 9.45274V90.5473C0 95.7679 4.23213 100 9.45274 100H90.5473C95.7679 100 100 95.7679 100 90.5473V9.45274C100 4.23213 95.7679 0 90.5473 0Z" fill="#379AD0"/>
<path fill-rule="evenodd" clip-rule="evenodd" d="M19.403 50.7461V80.5969H33.8308V39.8008H19.403V50.7461ZM26.8656 19.4028C22.8855 19.4028 19.403 22.8854 19.403 26.8655C19.403 30.3481 22.8855 33.8307 26.8656 33.8307C30.3482 33.8307 33.8308 30.3481 33.8308 26.8655C33.8308 22.8854 30.3482 19.4028 26.8656 19.4028ZM80.0995 52.2387C79.1044 44.776 75.6219 39.8008 65.1741 39.8008C59.204 39.8008 55.2239 42.2884 53.2338 45.2735V39.8008H41.791V80.5969H53.7313V60.1989C53.7313 55.2237 54.7263 49.7511 61.194 49.7511C67.6617 49.7511 68.1592 56.2188 68.1592 60.6964V80.5969H80.597V58.2088C80.597 56.2188 80.597 54.2287 80.0995 52.2387Z" fill="#FEFEFE"/>
</g>
<defs>
<clipPath id="clip0_1043_2">
<rect width="100" height="100" fill="white"/>
</clipPath>
</defs>
</svg>
