<svg width="34" height="35" viewBox="0 0 34 35" fill="none" xmlns="http://www.w3.org/2000/svg">
<g clip-path="url(#clip0_360_471)">
<path d="M28.9 0.690918H5.1C2.28335 0.690918 0 2.97427 0 5.79092V29.5909C0 32.4076 2.28335 34.6909 5.1 34.6909H28.9C31.7167 34.6909 34 32.4076 34 29.5909V5.79092C34 2.97427 31.7167 0.690918 28.9 0.690918Z" fill="#0077B5"/>
<path d="M9.4292 12.312C10.7862 12.312 11.8862 11.212 11.8862 9.85498C11.8862 8.498 10.7862 7.39795 9.4292 7.39795C8.07222 7.39795 6.97217 8.498 6.97217 9.85498C6.97217 11.212 8.07222 12.312 9.4292 12.312Z" fill="white"/>
<path d="M16.2031 13.5737V26.7222ZM9.42969 13.5737V26.7222Z" fill="white"/>
<path d="M16.2031 13.5737V26.7222M9.42969 13.5737V26.7222" stroke="white" stroke-width="4.38281"/>
<path d="M18.3281 19.4175C18.3281 18.0894 19.1914 16.7612 20.7188 16.7612C22.3125 16.7612 22.9102 17.9565 22.9102 19.7495V26.7222H27.293V19.2183C27.293 15.1675 25.168 13.3081 22.2461 13.3081C19.9883 13.3081 18.8594 14.5698 18.3281 15.4331" fill="white"/>
</g>
<defs>
<clipPath id="clip0_360_471">
<rect width="34" height="34" fill="white" transform="translate(0 0.690918)"/>
</clipPath>
</defs>
</svg>
