<svg width="75" height="54" viewBox="0 0 75 54" fill="none" xmlns="http://www.w3.org/2000/svg">
<path d="M3.64393 28.3315C3.54548 28.3582 3.4466 28.3259 3.34728 28.2347C3.24954 28.1493 3.18182 28.0371 3.14415 27.8981C3.12845 27.8402 3.12591 27.785 3.13652 27.7324C3.15291 27.6782 3.18693 27.6317 3.23856 27.5928C3.29441 27.5466 3.35105 27.5033 3.40847 27.4628C3.47011 27.415 3.53176 27.3672 3.5934 27.3194C3.56347 27.2778 3.53408 27.2267 3.50523 27.1662C3.47638 27.1056 3.45019 27.0319 3.42664 26.945C3.40937 26.8813 3.38799 26.7566 3.3625 26.5708C3.34122 26.3776 3.31921 26.1474 3.29647 25.88C3.27373 25.6126 3.24997 25.33 3.22517 25.0321C3.20459 24.7269 3.18348 24.4311 3.16182 24.1448C3.14438 23.8511 3.129 23.588 3.11568 23.3554C3.09121 22.8522 3.10323 22.3921 3.15177 21.9748C3.2061 21.556 3.33452 21.2042 3.53703 20.9193C3.74377 20.627 4.0643 20.422 4.49863 20.3043C4.82872 20.2148 5.17264 20.1993 5.53038 20.2577C5.89392 20.3146 6.24209 20.4409 6.5749 20.6366C6.91192 20.825 7.20649 21.0747 7.4586 21.3855C7.71071 21.6964 7.89327 22.0603 8.00629 22.4773C8.10361 22.8363 8.11226 23.2007 8.03222 23.5706C7.95062 23.9346 7.80639 24.2969 7.59955 24.6576C7.3927 25.0183 7.13983 25.3697 6.84092 25.7118C6.54781 26.0524 6.23183 26.3774 5.89298 26.6868C5.55835 26.9889 5.22323 27.2662 4.88763 27.5188C4.5536 27.7772 4.24145 28.0017 3.9512 28.1922C3.9138 28.2148 3.86772 28.2397 3.81295 28.267C3.75818 28.2943 3.70184 28.3158 3.64393 28.3315ZM4.14422 26.909C4.59153 26.564 5.02279 26.2171 5.438 25.8683C5.85901 25.518 6.22451 25.1578 6.53451 24.7878C6.84294 24.412 7.06456 24.0256 7.19937 23.6285C7.33417 23.2314 7.34271 22.8157 7.22498 22.3813C7.16376 22.1555 7.052 21.9496 6.88968 21.7635C6.72736 21.5775 6.53078 21.4257 6.29995 21.308C6.07334 21.1829 5.83087 21.1025 5.57254 21.0669C5.31844 21.0239 5.06688 21.0361 4.81786 21.1036C4.59202 21.1648 4.40503 21.2777 4.2569 21.4421C4.11299 21.5993 4.0158 21.837 3.96531 22.1553C3.91482 22.4736 3.91154 22.8972 3.95544 23.4261C3.97072 23.7577 3.99016 24.1161 4.01377 24.5013C4.0358 24.8808 4.05392 25.2457 4.06811 25.5962C4.08652 25.9394 4.10317 26.2301 4.11806 26.4685C4.13138 26.7012 4.13986 26.8356 4.14349 26.8719C4.14663 26.8835 4.14687 26.8959 4.14422 26.909ZM10.6599 25.9728C10.5672 25.9979 10.4788 25.9814 10.3947 25.9234C10.3106 25.8654 10.2505 25.7698 10.2144 25.6366C10.1877 25.5382 10.164 25.3705 10.1433 25.1337C10.1269 24.8895 10.1031 24.6069 10.072 24.2858C10.0468 23.9632 10.0096 23.6313 9.9607 23.2903C9.9102 22.9434 9.84335 22.6165 9.76015 22.3096C9.71934 22.159 9.72716 22.0388 9.7836 21.9489C9.84427 21.8516 9.92383 21.7896 10.0223 21.763C10.1149 21.7378 10.2001 21.7769 10.2778 21.8802C10.3556 21.9834 10.427 22.2127 10.4923 22.568C10.5985 21.9051 10.7623 21.351 10.9835 20.9056C11.2089 20.4529 11.4596 20.1052 11.7358 19.8625C12.0103 19.614 12.275 19.4552 12.5298 19.3861C12.6977 19.3406 12.8288 19.3424 12.9229 19.3915C13.0212 19.4332 13.0814 19.4946 13.1034 19.5757C13.1332 19.6857 13.1104 19.7851 13.035 19.8739C12.9638 19.9554 12.8292 20.0665 12.6311 20.2072C12.403 20.3747 12.1999 20.5541 12.0217 20.7454C11.8478 20.9293 11.6935 21.1514 11.5589 21.4117C11.4301 21.6704 11.3199 21.9862 11.2283 22.3592C11.1351 22.7264 11.0623 23.1688 11.0099 23.6866C10.9576 24.2043 10.9195 24.8207 10.8958 25.5358C10.8955 25.6727 10.8735 25.775 10.8298 25.8428C10.7918 25.909 10.7351 25.9524 10.6599 25.9728ZM15.4912 24.5792C15.1496 24.6718 14.845 24.6145 14.5774 24.4073C14.3099 24.2001 14.1196 23.888 14.0066 23.471C13.9658 23.3205 13.9429 23.1557 13.9379 22.9768C13.9372 22.7905 13.9527 22.6185 13.9845 22.4606C13.933 22.4311 13.8862 22.3847 13.8442 22.3215C13.8006 22.2525 13.7639 22.163 13.7341 22.0529C13.6415 21.7113 13.6146 21.3829 13.6536 21.0677C13.6925 20.7525 13.7792 20.4648 13.9138 20.2045C14.0468 19.9385 14.2135 19.7161 14.4137 19.5375C14.6197 19.3573 14.8444 19.2343 15.0876 19.1684C15.4872 19.06 15.8507 19.1169 16.1782 19.339C16.5041 19.5552 16.7464 19.9558 16.9049 20.5407C16.9881 20.8476 17.0266 21.1729 17.0202 21.5165C17.0197 21.8586 16.9813 22.1985 16.905 22.5362C16.8345 22.8723 16.7293 23.1837 16.5894 23.4703C16.4553 23.7553 16.2941 23.9979 16.1059 24.1981C15.922 24.391 15.7171 24.518 15.4912 24.5792ZM14.4778 22.0099C14.5251 22.0468 14.5589 22.1029 14.5793 22.1782C14.6029 22.265 14.609 22.3566 14.5978 22.4529C14.5924 22.5476 14.5928 22.675 14.5988 22.8349C14.6049 22.9949 14.6456 23.2139 14.7209 23.4919C14.7963 23.7698 14.944 23.879 15.164 23.8194C15.4073 23.7534 15.6072 23.5967 15.7639 23.349C15.919 23.0956 16.036 22.7935 16.115 22.4426C16.1939 22.0917 16.2298 21.7308 16.2224 21.3598C16.2193 20.9814 16.1754 20.6359 16.0906 20.3232C16.0357 20.1205 15.9596 19.9888 15.8624 19.9281C15.7635 19.8617 15.6157 19.8551 15.4188 19.9085C15.2161 19.9634 15.0235 20.0902 14.8412 20.2889C14.663 20.4801 14.5329 20.7112 14.4509 20.9821C14.3689 21.253 14.3672 21.5332 14.4457 21.8228C14.4629 21.8865 14.4736 21.9488 14.4778 22.0099ZM19.6127 26.1382C19.5143 26.1649 19.4267 26.1514 19.3499 26.0976C19.279 26.0422 19.2168 25.9161 19.1634 25.7192C19.0865 25.4354 19.0173 25.0998 18.9558 24.7124C18.8943 24.325 18.841 23.9105 18.7959 23.469C18.7566 23.0258 18.7231 22.5811 18.6954 22.1348C18.6734 21.6869 18.6599 21.2586 18.6547 20.8497C18.6554 20.4392 18.6649 20.073 18.6833 19.7509C18.7001 19.4231 18.7255 19.1613 18.7595 18.9656C18.7993 18.7684 18.851 18.6611 18.9147 18.6438C19.0247 18.614 19.1202 18.6223 19.2012 18.6687C19.288 18.7136 19.3486 18.7997 19.3831 18.9271C19.4271 19.0893 19.4493 19.3661 19.4497 19.7576C19.4486 20.1434 19.4484 20.647 19.449 21.2685C19.5215 20.9628 19.6026 20.6425 19.692 20.3074C19.7815 19.9723 19.882 19.6436 19.9935 19.3212C20.1035 18.993 20.2213 18.6937 20.3469 18.4234C20.4784 18.1516 20.6158 17.9247 20.7592 17.7429C20.9027 17.561 21.0583 17.4473 21.2263 17.4018C21.4058 17.3531 21.5808 17.3679 21.7511 17.446C21.9199 17.5184 22.0679 17.6399 22.195 17.8106C22.3263 17.9739 22.4233 18.1714 22.4861 18.4031C22.6164 18.8837 22.6617 19.3719 22.622 19.8675C22.5807 20.3574 22.4639 20.8211 22.2717 21.2586C22.0837 21.6888 21.824 22.0607 21.4925 22.3744C21.1668 22.6864 20.781 22.9029 20.3351 23.0238C20.1671 23.0693 20.0142 23.1014 19.8763 23.1202C19.7384 23.1389 19.6171 23.15 19.5124 23.1535C19.5465 23.5546 19.5866 23.9664 19.6328 24.3891C19.679 24.8117 19.7322 25.2604 19.7925 25.7352C19.8081 25.8615 19.8019 25.9533 19.7739 26.0106C19.7475 26.0737 19.6938 26.1163 19.6127 26.1382ZM21.5616 18.0196C21.44 18.0526 21.314 18.1613 21.1838 18.3458C21.0593 18.5287 20.9329 18.7619 20.8046 19.0454C20.6805 19.3215 20.5606 19.6244 20.4448 19.9541C20.3275 20.2781 20.2175 20.6063 20.1149 20.9388C20.0123 21.2712 19.9187 21.5794 19.834 21.8634C19.7552 22.1459 19.6914 22.3808 19.6427 22.568C20.0913 22.434 20.4636 22.2367 20.7598 21.9762C21.0544 21.7098 21.2872 21.4105 21.4582 21.0782C21.6276 20.7401 21.7452 20.3943 21.811 20.0407C21.8811 19.6798 21.9108 19.3423 21.9002 19.0281C21.8881 18.7081 21.8522 18.4381 21.7926 18.2181C21.7486 18.0559 21.6716 17.9898 21.5616 18.0196ZM29.4163 20.5342C29.1962 20.5938 28.9863 20.5419 28.7866 20.3785C28.5911 20.2077 28.4486 19.9573 28.3592 19.6272C28.2807 19.3376 28.2777 19.04 28.3503 18.7344C28.4213 18.423 28.5417 18.1106 28.7117 17.7972C28.8874 17.4823 29.0947 17.1805 29.3335 16.892C29.5708 16.5977 29.8164 16.3228 30.0705 16.0675C30.3303 15.8105 30.5798 15.5844 30.819 15.389C31.064 15.192 31.2764 15.035 31.456 14.9179C31.634 14.7951 31.7607 14.7234 31.836 14.703C31.9634 14.6685 32.0459 14.7207 32.0836 14.8597C32.1166 14.9813 32.0964 15.1018 32.0231 15.2211C31.9555 15.3389 31.8638 15.4477 31.7479 15.5475C31.5376 15.735 31.2989 15.9552 31.0317 16.2079C30.7687 16.4532 30.5054 16.7204 30.2419 17.0094C29.9825 17.2911 29.7474 17.5817 29.5364 17.8814C29.3313 18.1794 29.1813 18.4749 29.0867 18.7679C28.9905 19.0551 28.9769 19.3261 29.046 19.5809C29.0664 19.6561 29.0965 19.7101 29.1365 19.7428C29.1822 19.7739 29.2456 19.7785 29.3267 19.7565C29.4309 19.7283 29.5508 19.643 29.6863 19.5005C29.8259 19.3508 29.9715 19.1653 30.1228 18.9439C30.2784 18.7153 30.4264 18.47 30.5668 18.2082C30.713 17.9447 30.8439 17.6824 30.9595 17.421C31.0736 17.1538 31.1598 16.9098 31.218 16.6889C31.2535 16.5674 31.3023 16.4609 31.3645 16.3694C31.4252 16.2721 31.5019 16.211 31.5945 16.1858C31.7219 16.1513 31.806 16.2093 31.8468 16.3599C31.8594 16.4062 31.8742 16.5296 31.8913 16.7302C31.9141 16.9291 31.9451 17.1694 31.9841 17.451C32.0215 17.7268 32.0803 18.0124 32.1604 18.3077C32.3315 18.9389 32.5676 19.2137 32.8687 19.1321C33.0366 19.0866 33.1931 18.9758 33.3381 18.7997C33.4889 18.6221 33.6244 18.4113 33.7448 18.1673C33.8694 17.9159 33.9763 17.6569 34.0657 17.3903C34.155 17.1236 34.2244 16.8748 34.2737 16.6439C34.323 16.4129 34.3514 16.2312 34.359 16.0986C34.2758 15.4248 34.2798 14.9233 34.3708 14.5941C34.4676 14.2632 34.6058 14.0735 34.7853 14.0248C34.9011 13.9934 35.0024 14.0001 35.0892 14.045C35.1743 14.0841 35.2444 14.2049 35.2993 14.4076C35.337 14.5466 35.3385 14.77 35.3038 15.0778C35.2691 15.3856 35.2039 15.7297 35.108 16.11C35.136 16.4194 35.1894 16.7313 35.2684 17.0456C35.3474 17.3599 35.4569 17.6379 35.5971 17.8797C35.7272 17.7636 35.8409 17.5867 35.9381 17.349C36.0337 17.1055 36.1236 16.8293 36.2078 16.5206C36.2919 16.2118 36.3708 15.8951 36.4445 15.5705C36.5239 15.2444 36.6067 14.9422 36.6929 14.664C36.7834 14.3784 36.8806 14.1406 36.9845 13.9508C37.0943 13.7595 37.2216 13.6441 37.3663 13.6049C37.5516 13.5547 37.7208 13.571 37.8738 13.6538C38.0252 13.7309 38.1713 13.9027 38.3119 14.1692C38.4509 14.4299 38.5895 14.815 38.7277 15.3246C38.8014 15.5968 38.8966 15.8446 39.013 16.0679C39.1353 16.2896 39.2769 16.4564 39.4377 16.5682C39.6028 16.6726 39.7838 16.6982 39.9807 16.6448C40.276 16.5647 40.5254 16.4412 40.7288 16.2742C40.9306 16.1013 41.0974 15.9256 41.2292 15.7469C41.3653 15.5608 41.4771 15.3999 41.5647 15.2643C41.6507 15.1229 41.7255 15.0435 41.7892 15.0263C41.9224 14.9902 42.0079 15.0416 42.0455 15.1806C42.0612 15.2385 42.0429 15.3429 41.9906 15.4939C41.9425 15.6375 41.8643 15.8078 41.7561 16.005C41.6522 16.1948 41.5243 16.388 41.3724 16.5846C41.2248 16.7738 41.0564 16.9438 40.8672 17.0945C40.6838 17.2437 40.485 17.3473 40.2708 17.4054C39.8712 17.5137 39.5228 17.5242 39.2256 17.4369C38.9342 17.3481 38.6791 17.1406 38.4601 16.8145C38.247 16.4869 38.0588 16.0219 37.8955 15.4197C37.8061 15.0896 37.7293 14.8524 37.6654 14.7081C37.5998 14.558 37.5136 14.4695 37.4069 14.4425C37.3703 14.5829 37.3248 14.7818 37.2702 15.039C37.2198 15.2889 37.1591 15.5695 37.0881 15.881C37.0229 16.1908 36.9469 16.5067 36.8601 16.8286C36.7717 17.1448 36.675 17.4414 36.5698 17.7186C36.4631 17.9899 36.3454 18.2208 36.2167 18.4111C36.0864 18.5956 35.946 18.7082 35.7954 18.7491C35.697 18.7757 35.5815 18.7511 35.449 18.6751C35.315 18.5933 35.1896 18.475 35.073 18.3201C34.9549 18.1594 34.8683 17.9777 34.8134 17.7751C34.7773 17.6419 34.7464 17.5166 34.7208 17.3992C34.5745 17.7994 34.4102 18.1796 34.2281 18.5398C34.0444 18.8942 33.8458 19.1936 33.6323 19.438C33.4188 19.6823 33.1991 19.8351 32.9733 19.8964C32.7938 19.945 32.6086 19.9268 32.4177 19.8418C32.2252 19.751 32.0374 19.5626 31.8542 19.2766C31.6752 18.9832 31.5061 18.5659 31.347 18.0247C31.1895 18.4528 31.0065 18.8443 30.7981 19.1992C30.5897 19.554 30.3685 19.8502 30.1345 20.0877C29.8989 20.3194 29.6595 20.4683 29.4163 20.5342ZM43.7733 19.2161C43.4837 19.2946 43.2118 19.3465 42.9576 19.3719C42.7108 19.4016 42.4605 19.4072 42.2069 19.3889C41.9549 19.3764 41.6763 19.3463 41.3711 19.2984C41.2791 19.2799 41.1933 19.2503 41.1139 19.2096C41.0361 19.1748 40.9878 19.1226 40.9689 19.0531C40.9454 18.9663 40.9753 18.8587 41.0586 18.7304C41.1378 18.6095 41.2237 18.5365 41.3163 18.5114C41.4148 18.4847 41.5458 18.4865 41.7094 18.5167C41.8788 18.5454 42.0745 18.5794 42.2965 18.6187C42.5201 18.6637 42.76 18.6888 43.0163 18.694C43.2784 18.6975 43.5484 18.6616 43.8263 18.5863C44.1275 18.5047 44.3775 18.3032 44.5764 17.982C44.7753 17.6608 44.8951 17.2429 44.9359 16.7283C44.9783 16.2195 44.9107 15.6379 44.7334 14.9835C44.68 14.7866 44.6153 14.571 44.5394 14.3367C44.4677 14.0951 44.387 13.8434 44.2975 13.5817C44.2401 13.9205 44.1646 14.2612 44.0709 14.6036C43.983 14.9445 43.8786 15.2587 43.7576 15.5464C43.6425 15.8325 43.5061 16.0746 43.3484 16.2727C43.195 16.4635 43.0198 16.5856 42.8229 16.639C42.5739 16.7065 42.3771 16.6914 42.2326 16.5939C42.088 16.4963 41.9796 16.3143 41.9074 16.0479C41.8321 15.77 41.7707 15.4633 41.7233 15.128C41.676 14.7928 41.6394 14.4514 41.6136 14.1041C41.5921 13.7494 41.5868 13.4089 41.5979 13.0826C41.6089 12.7564 41.6367 12.4691 41.6813 12.2208C41.7078 12.0893 41.779 12.0078 41.8948 11.9764C41.9759 11.9544 42.0658 11.9767 42.1646 12.0431C42.2677 12.1022 42.3373 12.1984 42.3734 12.3316C42.4016 12.4358 42.4185 12.5898 42.424 12.7934C42.4294 12.9971 42.4304 13.2299 42.4268 13.492C42.4233 13.7541 42.4228 14.0277 42.4256 14.3129C42.4267 14.5924 42.4386 14.8658 42.4614 15.1331C42.4826 15.3947 42.5214 15.6297 42.5779 15.8382C42.6014 15.9251 42.6711 15.9528 42.787 15.9214C42.8507 15.9041 42.9247 15.8219 43.0091 15.6747C43.0978 15.5201 43.1886 15.3276 43.2816 15.0973C43.3788 14.8596 43.4713 14.6045 43.559 14.3321C43.651 14.0522 43.738 13.7769 43.82 13.506C43.9004 13.2293 43.9661 12.9784 44.0169 12.7533C43.9986 12.7085 43.9839 12.6659 43.9729 12.6253C43.962 12.5848 43.9517 12.5471 43.9423 12.5124C43.8654 12.2286 43.8465 12.0442 43.8856 11.959C43.9289 11.8664 43.9997 11.8068 44.0982 11.7801C44.2661 11.7346 44.395 11.7401 44.4849 11.7965C44.5748 11.8529 44.6449 11.9738 44.6951 12.1591C44.714 12.2286 44.7257 12.3063 44.7303 12.3921C44.7333 12.472 44.7342 12.5899 44.7329 12.7457C44.9032 13.1906 45.0523 13.5916 45.1802 13.9486C45.3138 14.304 45.4309 14.667 45.5313 15.0376C45.7213 15.7383 45.7732 16.377 45.687 16.9536C45.6067 17.5287 45.4022 18.013 45.0738 18.4067C44.7511 18.7987 44.3176 19.0686 43.7733 19.2161ZM45.9804 13.2374C45.8209 13.2682 45.721 13.1865 45.6808 12.9923C45.674 12.9444 45.691 12.8807 45.7316 12.8013C45.7707 12.7161 45.8271 12.6605 45.9008 12.6343C46.0756 12.5682 46.2886 12.4825 46.5398 12.3771C46.7952 12.2644 47.0751 12.1388 47.3794 12.0003C47.3604 11.7009 47.3491 11.3838 47.3454 11.0491C47.3417 10.7144 47.349 10.386 47.3674 10.064C47.3843 9.7362 47.4147 9.43576 47.4588 9.16272C47.5029 8.88967 47.5669 8.66717 47.6509 8.49522C47.6973 8.41425 47.7435 8.35512 47.7893 8.31783C47.8336 8.27475 47.876 8.24771 47.9165 8.23672C47.9976 8.21474 48.0707 8.23222 48.1359 8.28916C48.2068 8.34452 48.2541 8.41564 48.2776 8.5025C48.2902 8.54883 48.294 8.59751 48.2892 8.64855C48.2613 9.00424 48.2451 9.43757 48.2406 9.94854C48.2362 10.4595 48.2348 11.0163 48.2365 11.6188C48.7457 11.3875 49.2534 11.1505 49.7594 10.9076C50.2655 10.6647 50.6987 10.451 51.0589 10.2663C51.1564 10.1901 51.2427 10.176 51.3179 10.2241C51.3989 10.2705 51.448 10.3256 51.4653 10.3893C51.4872 10.4703 51.4805 10.5374 51.4452 10.5905C51.4157 10.642 51.3816 10.6886 51.3432 10.7301L51.3368 10.7411C51.2336 10.8188 51.0747 10.9209 50.8604 11.0474C50.6444 11.1681 50.3953 11.304 50.113 11.4552C49.8291 11.6005 49.525 11.7513 49.2006 11.9076C48.882 12.0624 48.5647 12.2105 48.2488 12.3521C48.2537 12.8979 48.2597 13.4588 48.2667 14.0351C48.2779 14.604 48.2867 15.1641 48.2933 15.7156C48.2919 15.9398 48.2606 16.0882 48.1994 16.1607C48.1456 16.2374 48.0782 16.2868 47.9971 16.3088C47.9045 16.3339 47.814 16.3211 47.7256 16.2705C47.6431 16.2183 47.596 16.0787 47.5842 15.8519L47.4154 12.7179C47.0821 12.8642 46.7854 12.985 46.5253 13.0804C46.2709 13.1742 46.0893 13.2266 45.9804 13.2374ZM51.9695 15.0175C51.8421 15.0521 51.7335 15.0411 51.6436 14.9847C51.5552 14.934 51.4726 14.7668 51.3957 14.483C51.3251 14.2224 51.2796 13.8711 51.2592 13.429C51.2373 12.9812 51.2346 12.4784 51.2513 11.9206C51.2679 11.3628 51.3001 10.7821 51.3479 10.1786C51.3941 9.56931 51.4521 8.96922 51.522 8.37837C51.5961 7.78015 51.674 7.23062 51.7558 6.72977C51.7872 6.54721 51.8347 6.4131 51.8985 6.32742C51.9623 6.24174 52.0493 6.18399 52.1593 6.15416C52.2346 6.13376 52.3046 6.13965 52.3692 6.17185C52.4381 6.19669 52.4859 6.25834 52.5126 6.35678C52.522 6.39153 52.515 6.51466 52.4915 6.72617C52.4738 6.93611 52.4437 7.21471 52.401 7.56196C52.3642 7.90764 52.3231 8.29488 52.2777 8.7237C52.2323 9.15251 52.1895 9.60237 52.1493 10.0733C52.1091 10.5442 52.0783 11.0157 52.0571 11.4877C52.0343 11.9539 52.027 12.3972 52.0353 12.8177C52.0436 13.2382 52.0727 13.6095 52.1228 13.9316C52.2162 13.726 52.3174 13.4686 52.4263 13.1593C52.5352 12.8501 52.6501 12.5174 52.7712 12.1613C52.8922 11.8052 53.017 11.4513 53.1454 11.0994C53.2738 10.7476 53.4064 10.4226 53.5432 10.1244C53.6799 9.82622 53.8156 9.58121 53.95 9.38934C54.0888 9.19011 54.2247 9.07244 54.3579 9.03634C54.578 8.97669 54.7734 8.9983 54.9443 9.10118C55.1194 9.1967 55.2485 9.39793 55.3317 9.70485C55.3788 9.87858 55.4006 10.0965 55.397 10.3585C55.3992 10.619 55.393 10.8942 55.3784 11.1842C55.3637 11.4741 55.3546 11.7501 55.351 12.0122C55.3532 12.2727 55.3779 12.4898 55.425 12.6635C55.4894 12.9009 55.6113 12.9953 55.7908 12.9467C56.0688 12.8713 56.3303 12.7351 56.5753 12.5382C56.8261 12.3397 57.0545 12.1161 57.2607 11.8675C57.4653 11.6131 57.6496 11.3642 57.8136 11.1208C57.9761 10.8717 58.1145 10.6601 58.229 10.4861C58.3519 10.2973 58.4684 10.188 58.5784 10.1582C58.7174 10.1206 58.8065 10.1741 58.8457 10.3189C58.8567 10.3594 58.8606 10.4081 58.8574 10.4649C58.8541 10.5218 58.8258 10.6009 58.7725 10.7024C58.7081 10.8317 58.6118 11.0039 58.4836 11.219C58.3612 11.4324 58.213 11.6653 58.0389 11.9177C57.8707 12.1684 57.679 12.4131 57.4639 12.6517C57.2546 12.8887 57.0288 13.0991 56.7865 13.2829C56.5483 13.4593 56.3019 13.5821 56.0471 13.6512C55.6996 13.7453 55.4036 13.7199 55.1592 13.5748C54.9189 13.4223 54.7509 13.1695 54.6551 12.8162C54.5955 12.5962 54.558 12.3204 54.5428 11.9888C54.5275 11.6573 54.5249 11.3036 54.5349 10.9279C54.5492 10.5448 54.5658 10.1704 54.5848 9.80473C54.4341 9.98237 54.2832 10.2284 54.1322 10.5429C53.9854 10.85 53.8365 11.1949 53.6854 11.5778C53.5327 11.9549 53.3816 12.3378 53.2321 12.7264C53.0883 13.1135 52.9441 13.4759 52.7994 13.8135C52.6589 14.1437 52.5188 14.4179 52.379 14.6361C52.2392 14.8543 52.1027 14.9814 51.9695 15.0175ZM59.2052 12.6832C59.0952 12.713 58.9857 12.6992 58.8769 12.6416C58.7665 12.5783 58.6869 12.4569 58.6383 12.2774C58.6037 12.15 58.5732 11.9686 58.5468 11.7334C58.5187 11.4923 58.4968 11.2278 58.4809 10.94C58.465 10.6521 58.4529 10.3663 58.4443 10.0827C58.4401 9.79165 58.4436 9.52959 58.455 9.29648C58.4665 9.06338 58.4841 8.88764 58.508 8.76928C58.5323 8.67564 58.5616 8.61175 58.5959 8.5776C58.6359 8.54188 58.6762 8.51852 58.7168 8.50753C58.7978 8.48556 58.8744 8.49278 58.9464 8.5292C59.0242 8.56405 59.0836 8.65676 59.1244 8.80733C59.1479 8.89419 59.1698 9.04368 59.19 9.25578C59.2144 9.46053 59.2367 9.70316 59.2567 9.98367C59.2811 10.2568 59.3019 10.5402 59.3194 10.8339C59.341 11.1202 59.3595 11.3949 59.3749 11.6581C59.3903 11.9212 59.4063 12.1407 59.4228 12.3165C59.4248 12.4154 59.4039 12.4988 59.3601 12.5666C59.3205 12.6271 59.2689 12.6659 59.2052 12.6832ZM58.7544 7.64877C58.6212 7.68488 58.4828 7.67888 58.3392 7.63077C58.2014 7.58109 58.1082 7.46649 58.0595 7.28696C58.0187 7.1364 58.0205 7.00537 58.0649 6.89387C58.1151 6.78081 58.1839 6.69067 58.2713 6.62344C58.363 6.54886 58.4465 6.50137 58.5218 6.48096C58.5971 6.46055 58.6857 6.45516 58.7878 6.46479C58.8941 6.46706 58.9938 6.50221 59.0868 6.57024C59.1783 6.63248 59.246 6.74467 59.2899 6.90682C59.3198 7.01685 59.3088 7.1255 59.2571 7.23277C59.2038 7.33425 59.1284 7.42307 59.0309 7.49922C58.9392 7.57381 58.8471 7.62366 58.7544 7.64877ZM61.9488 11.6784C61.7809 11.7239 61.6044 11.6692 61.4194 11.5142C61.2344 11.3592 61.1011 11.1311 61.0195 10.83C60.93 10.4999 60.8777 10.1349 60.8625 9.73489C60.8531 9.33336 60.8625 8.92054 60.8905 8.49644C60.9169 8.06655 60.9444 7.65191 60.9729 7.25254C60.9815 7.16941 61.0071 7.10341 61.0498 7.05454C61.0967 6.9983 61.1781 6.95449 61.2939 6.92309C61.5024 6.86658 61.6341 6.93967 61.6891 7.14235C61.7016 7.18868 61.7067 7.2992 61.7043 7.47391C61.7019 7.64861 61.6953 7.86489 61.6844 8.12272C61.6792 8.37899 61.6767 8.65632 61.6768 8.95469C61.6753 9.24728 61.6832 9.5404 61.7007 9.83407C61.7181 10.1277 61.7474 10.3964 61.7886 10.6401C61.8546 10.5166 61.918 10.3378 61.9789 10.1037C62.0456 9.86802 62.1139 9.60395 62.1838 9.31148C62.2521 9.0132 62.3263 8.71336 62.4062 8.41196C62.4845 8.10475 62.5692 7.82072 62.6601 7.55984C62.7552 7.29161 62.8571 7.07128 62.9658 6.89884C63.0787 6.71904 63.1989 6.61187 63.3263 6.57734C63.5116 6.52711 63.6836 6.54263 63.8424 6.62392C64.0054 6.69784 64.1602 6.86727 64.3066 7.13219C64.4572 7.38975 64.6016 7.77334 64.7397 8.28295C64.8135 8.55513 64.9086 8.80287 65.0251 9.02618C65.1474 9.24791 65.2889 9.41468 65.4498 9.52649C65.6148 9.63094 65.7958 9.65648 65.9927 9.60311C66.2881 9.52305 66.5374 9.39951 66.7408 9.23248C66.9426 9.05966 67.1095 8.8839 67.2413 8.70518C67.3774 8.5191 67.4892 8.35825 67.5767 8.22261C67.6627 8.08119 67.7376 8.00184 67.8013 7.98457C67.9345 7.94847 68.0199 7.99991 68.0576 8.13889C68.0733 8.19681 68.055 8.30123 68.0026 8.45218C67.9545 8.59577 67.8764 8.76615 67.7682 8.96332C67.6642 9.15313 67.5363 9.34633 67.3844 9.54291C67.2368 9.73212 67.0684 9.9021 66.8793 10.0528C66.6959 10.202 66.4971 10.3056 66.2828 10.3637C65.8832 10.472 65.5349 10.4825 65.2377 10.3952C64.9463 10.3064 64.6911 10.0989 64.4722 9.77284C64.259 9.44519 64.0708 8.98023 63.9076 8.37797C63.8181 8.04788 63.7327 7.81304 63.6513 7.67347C63.5742 7.52653 63.4794 7.44034 63.3668 7.41491C63.3303 7.55536 63.2876 7.75342 63.2388 8.00909C63.1884 8.25898 63.1277 8.53963 63.0567 8.85105C62.9915 9.16091 62.9184 9.47601 62.8374 9.79636C62.7606 10.1094 62.6754 10.4029 62.5818 10.6769C62.4883 10.9509 62.3887 11.1799 62.2832 11.364C62.1761 11.5422 62.0646 11.647 61.9488 11.6784ZM69.1991 12.3893C68.7531 12.5102 68.4142 12.5554 68.1822 12.5251C67.9501 12.4947 67.8145 12.4072 67.7753 12.2624C67.7501 12.1697 67.7587 12.0866 67.8009 12.013C67.8489 11.9378 67.9192 11.8877 68.0119 11.8625C68.1103 11.8359 68.2561 11.8119 68.4493 11.7906C68.644 11.7751 68.8312 11.743 69.0107 11.6944C69.6072 11.5327 70.0486 11.2234 70.3351 10.7666C70.6215 10.3097 70.7672 9.68897 70.7721 8.90436C70.7754 8.11396 70.6572 7.13893 70.4175 5.97926C70.3395 6.3796 70.2384 6.78623 70.1141 7.19913C69.994 7.60467 69.8487 7.98597 69.6782 8.34302C69.5118 8.69271 69.3219 8.98974 69.1084 9.23411C68.8949 9.47848 68.6608 9.6352 68.406 9.70427C68.1628 9.7702 67.9667 9.75805 67.818 9.66784C67.675 9.57605 67.5658 9.39117 67.4905 9.1132C67.423 8.86419 67.421 8.58186 67.4847 8.26622C67.5467 7.94478 67.6551 7.61079 67.8099 7.26424C67.9646 6.91769 68.1464 6.57934 68.3553 6.24918C68.5626 5.91324 68.7786 5.60915 69.0032 5.3369C69.232 5.0573 69.4523 4.82662 69.6642 4.64487C69.876 4.46312 70.0572 4.35184 70.2078 4.31103C70.3583 4.27021 70.4883 4.29094 70.5976 4.3732C70.7069 4.45546 70.8008 4.64137 70.8793 4.93092C71.063 5.60847 71.2188 6.27492 71.3467 6.93029C71.4788 7.57829 71.5557 8.19463 71.5774 8.77931C71.5992 9.36399 71.5384 9.89645 71.395 10.3767C71.259 10.8611 71.0139 11.2757 70.6598 11.6204C70.3056 11.965 69.8187 12.2213 69.1991 12.3893ZM70.0304 5.17036C69.7911 5.43416 69.5493 5.72348 69.3052 6.03832C69.0611 6.35315 68.8411 6.67698 68.6454 7.00978C68.4554 7.34102 68.317 7.6676 68.2302 7.98952C68.1434 8.31144 68.1377 8.61139 68.2131 8.88936C68.2366 8.97622 68.3034 9.00474 68.4134 8.97492C68.5003 8.95137 68.601 8.85259 68.7154 8.67859C68.8341 8.49722 68.9584 8.26771 69.0883 7.99006C69.2166 7.70661 69.3423 7.40212 69.4654 7.07657C69.5928 6.74365 69.7048 6.41177 69.8016 6.08092C69.8985 5.75007 69.9747 5.44655 70.0304 5.17036Z" fill="#FFE3A5"/>
<path d="M23.7795 27.7938C31.413 32.0835 38.4782 39.037 42.2674 47.0564" stroke="url(#paint0_radial_323_438)" stroke-width="0.674033" stroke-linecap="round"/>
<path d="M36.8337 45.4882C39.8542 45.9478 42.349 47.2284 43.2546 49.145" stroke="url(#paint1_radial_323_438)" stroke-width="0.674033" stroke-linecap="round"/>
<path d="M44.5056 41.8604C42.9435 44.487 42.349 47.2284 43.2546 49.145" stroke="url(#paint2_radial_323_438)" stroke-width="0.674033" stroke-linecap="round"/>
<defs>
<radialGradient id="paint0_radial_323_438" cx="0" cy="0" r="1" gradientUnits="userSpaceOnUse" gradientTransform="translate(33.0235 37.4251) rotate(-25.308) scale(4.24319 12.6586)">
<stop stop-color="#202020"/>
<stop offset="1" stop-color="#868686"/>
</radialGradient>
<radialGradient id="paint1_radial_323_438" cx="0" cy="0" r="1" gradientUnits="userSpaceOnUse" gradientTransform="translate(40.0442 47.3166) rotate(-25.308) scale(2.12159 3.02532)">
<stop stop-color="#202020"/>
<stop offset="1" stop-color="#868686"/>
</radialGradient>
<radialGradient id="paint2_radial_323_438" cx="0" cy="0" r="1" gradientUnits="userSpaceOnUse" gradientTransform="translate(43.8801 45.5027) rotate(154.692) scale(2.12159 3.02532)">
<stop stop-color="#202020"/>
<stop offset="1" stop-color="#868686"/>
</radialGradient>
</defs>
</svg>
